<?xml version="1.0" encoding="utf-8"?>
<!-- Generator: Adobe Illustrator 24.0.1, SVG Export Plug-In . SVG Version: 6.00 Build 0)  -->
<svg version="1.1" id="Layer_1" xmlns="http://www.w3.org/2000/svg" xmlns:xlink="http://www.w3.org/1999/xlink" x="0px" y="0px"
	 viewBox="0 0 352 411" style="enable-background:new 0 0 352 411;" xml:space="preserve">
<path d="M275.79,0c0,0-140.74,220.35-219.14,244.69c-78.38,24.36-30.88-111.65,51.08-38c81.97,73.66,204.9,154.42,236.99,39.81
	c32.07-114.63-56.43-68.31-84.36-1.8c-27.92,66.52-54.61,155.62-58.78,151.47c-4.17-4.15-73.06-45.72-76.04-115.81
	c0,0,57.04,17.21,121.77,50.46c64.74,33.28-138.38-87.89-137.79-65.9c0.59,21.96,21.38,99.77,97.39,146.1
	c0,0,77.21-238.77,119.96-217.38c42.79,21.38-4.74,139.57-90.85,94.45c-86.14-45.15-164.52-166.31-219.74-88.5
	c-55.25,77.8,43.95,73.64,76,40.98C124.36,207.88,199.79,146.12,275.79,0z"/>
<g>
</g>
<g>
</g>
<g>
</g>
<g>
</g>
<g>
</g>
<g>
</g>
<g>
</g>
<g>
</g>
<g>
</g>
<g>
</g>
<g>
</g>
<g>
</g>
<g>
</g>
<g>
</g>
<g>
</g>
</svg>
